<?xml version="1.0" encoding="UTF-8"?>
<svg version="1.1" xmlns="http://www.w3.org/2000/svg" width="192" height="192">
<path d="M0 0 C8.22515635 2.78065089 16.20745026 5.17633026 24.8125 6.4375 C24.8125 7.0975 24.8125 7.7575 24.8125 8.4375 C24.12542969 8.59605469 23.43835938 8.75460938 22.73046875 8.91796875 C17.16753871 10.27938786 17.16753871 10.27938786 12.6875 13.625 C10.02744737 22.17516918 13.06000454 28.15624661 16.8125 35.8125 C17.33634277 36.91360107 17.86018555 38.01470215 18.39990234 39.14916992 C19.55595237 41.57794633 20.71709701 44.00359453 21.88574219 46.42626953 C25.09195581 53.08429232 28.22065275 59.77915629 31.36328125 66.46734619 C32.42415833 68.72164971 33.48883743 70.97411828 34.5546875 73.22607422 C34.88931 73.93429825 35.2239325 74.64252228 35.56869507 75.37220764 C36.19568778 76.69910264 36.82372757 78.0255036 37.45303345 79.3513031 C39.02089235 82.67404691 40.48999436 86.00945822 41.8125 89.4375 C42.01069336 88.93154297 42.20888672 88.42558594 42.41308594 87.90429688 C43.45788487 85.24669783 44.50955514 82.59188272 45.5625 79.9375 C45.97991455 78.88336914 46.3973291 77.82923828 46.82739258 76.74316406 C50.104275 68.53946117 53.51124568 60.39648546 56.96484375 52.265625 C57.88272418 50.09580345 58.80036553 47.92588075 59.71777344 45.75585938 C61.10707616 42.46965462 62.50077496 39.18569572 63.90881348 35.9074707 C65.2465103 32.7921119 66.56797333 29.67029367 67.88671875 26.546875 C68.29768295 25.60193176 68.70864716 24.65698853 69.13206482 23.68341064 C69.5005806 22.80271912 69.86909637 21.92202759 70.2487793 21.01464844 C70.57613571 20.24844177 70.90349213 19.48223511 71.24076843 18.69281006 C72.09738069 15.99396587 72.09738069 15.99396587 70.8125 11.4375 C65.8625 11.1075 60.9125 10.7775 55.8125 10.4375 C55.8125 9.7775 55.8125 9.1175 55.8125 8.4375 C65.3825 8.4375 74.9525 8.4375 84.8125 8.4375 C84.4825 9.0975 84.1525 9.7575 83.8125 10.4375 C83.04881104 10.4691626 82.28512207 10.5008252 81.49829102 10.53344727 C78.79228295 11.14568159 78.79228295 11.14568159 77.77658081 12.94015503 C76.69577216 15.22870745 75.75624379 17.54293498 74.83984375 19.90234375 C74.27788551 21.27953835 74.27788551 21.27953835 73.70457458 22.68455505 C72.38763521 25.92797034 71.10086625 29.18263515 69.8125 32.4375 C68.77337542 35.02508771 67.72840444 37.61030733 66.68408203 40.19580078 C63.51865523 48.04712701 60.385815 55.91126917 57.25848389 63.77783203 C54.91150139 69.68104024 52.5615088 75.58304503 50.20853996 81.48386955 C49.39492554 83.52619482 48.58354599 85.56939769 47.77235413 87.61268616 C47.27614169 88.8584444 46.77984412 90.10416874 46.28344727 91.34985352 C45.85314713 92.43234879 45.42284698 93.51484406 44.97950745 94.63014221 C42.98529099 99.42743731 42.98529099 99.42743731 41.8125 101.4375 C39.13459537 102.27636169 36.6387059 102.25516414 33.8125 102.4375 C24.98740152 84.37908867 16.49774454 66.18766279 8.25917053 47.85453796 C6.95960604 44.96383261 5.64579752 42.08180344 4.30078125 39.21191406 C3.85089844 38.24995117 3.40101562 37.28798828 2.9375 36.296875 C2.54820313 35.47670898 2.15890625 34.65654297 1.7578125 33.81152344 C-0.45182315 28.26232483 -0.71833726 23.34226899 0.875 17.625 C3.43672918 13.41054232 6.34138335 10.67305833 10.8125 8.4375 C-21.74096006 -1.33996577 -21.74096006 -1.33996577 -54.1875 3.4375 C-59.42035294 6.4907481 -63.25241507 9.51841669 -65.1875 15.4375 C-66.18177017 20.22878619 -66.60800273 24.10178545 -65.125 28.8125 C-61.11539764 34.24486449 -56.55510325 35.87623279 -50.140625 36.9453125 C-48.1875 37.4375 -48.1875 37.4375 -46.1875 39.4375 C-46.1875 40.7575 -46.1875 42.0775 -46.1875 43.4375 C-51.72906623 43.78384789 -56.33376655 43.31167157 -61.1875 40.4375 C-65.88624216 36.18099239 -69.78209672 31.68672698 -70.3984375 25.2265625 C-70.73675333 16.76866678 -69.03722858 10.31984793 -63.6875 3.6875 C-46.476414 -14.34166321 -20.39838545 -6.89697203 0 0 Z " fill="#000000" transform="translate(90.1875,37.5625)"/>
</svg>
